<?xml version="1.0" standalone="no"?>
<!DOCTYPE svg PUBLIC "-//W3C//DTD SVG 20010904//EN"
 "http://www.w3.org/TR/2001/REC-SVG-20010904/DTD/svg10.dtd">
<svg version="1.0" xmlns="http://www.w3.org/2000/svg"
 width="700.000000pt" height="700.000000pt" viewBox="0 0 700.000000 700.000000"
 preserveAspectRatio="xMidYMid meet">
<metadata>
Created by potrace 1.11, written by Peter Selinger 2001-2013
</metadata>
<g transform="translate(0.000000,700.000000) scale(0.100000,-0.100000)"
fill="#000000" stroke="none">
<path d="M3308 6819 c-1435 -82 -2660 -1085 -3023 -2474 -78 -298 -107 -530
-107 -845 0 -316 29 -548 107 -845 238 -910 859 -1684 1694 -2109 354 -180
649 -274 1054 -338 125 -20 181 -22 467 -22 350 -1 458 10 725 69 723 162
1395 578 1860 1154 409 506 657 1113 726 1776 15 140 14 487 0 630 -80 784
-415 1490 -966 2040 -514 513 -1172 839 -1893 939 -100 14 -435 38 -487 34
-11 0 -81 -4 -157 -9z m413 -2163 c464 -89 837 -457 928 -915 39 -193 36 -345
-10 -531 -128 -517 -601 -884 -1139 -883 -462 1 -860 251 -1061 668 -209 434
-130 948 202 1308 168 183 425 322 659 356 41 6 86 13 100 15 45 8 244 -3 321
-18z"/>
<path d="M3437 3790 c-228 -57 -309 -336 -144 -498 118 -116 301 -115 415 1
175 179 67 475 -183 501 -27 3 -67 1 -88 -4z m133 -225 c29 -30 32 -80 6 -119
-51 -78 -171 -41 -171 54 0 88 101 128 165 65z"/>
</g>
</svg>
