<svg xmlns="http://www.w3.org/2000/svg" viewBox="0 0 486.4 486.4">
  <g>
    <path d="M243.2,7.12A236.06,236.06,0,0,0,7.12,243.2c0,130.38,105.7,236.08,236.08,236.08S479.28,373.58,479.28,243.2,373.58,7.12,243.2,7.12Zm0,274.08a38,38,0,0,1-22.73-68.48,37.26,37.26,0,0,1,22.73-7.52,38,38,0,0,1,0,76Z" fill="#4d5967"/>
    <path d="M394.36,61.88A21.36,21.36,0,0,0,395,91.39,214.7,214.7,0,0,1,91.38,395a21.35,21.35,0,0,0-29.5-.66A235.56,235.56,0,0,0,243.2,479.28c130.38,0,236.08-105.7,236.08-236.08A235.56,235.56,0,0,0,394.36,61.88Z" fill="#3e4954"/>
    <path d="M243.2,149.62a93.57,93.57,0,0,0-93.58,93.58,93.58,93.58,0,1,0,93.58-93.58Zm0,107.83a14.26,14.26,0,0,1-8.52-25.68A14,14,0,0,1,243.2,229a14.25,14.25,0,0,1,0,28.5Z" fill="#d867db"/>
    <path d="M415.17,71.23A243.24,243.24,0,0,0,96.39,49.29a245.4,245.4,0,0,0-70.15,83.92,243.24,243.24,0,0,0,217,353.19,243.2,243.2,0,0,0,172-415.17Zm-172,400.92C117,472.15,14.25,369.44,14.25,243.2c0-72.28,33.08-138.82,90.75-182.55a226.87,226.87,0,0,1,138.2-46.4c126.24,0,229,102.71,229,229S369.44,472.15,243.2,472.15Z"/>
    <path d="M135.13,93.26a7,7,0,0,0-4.29,1.45h0a190.43,190.43,0,0,0-28.26,26.35A184.35,184.35,0,0,0,58,224.06c0,.05,0,.12,0,.19-.62,6.22-.94,12.6-.94,18.95a187.36,187.36,0,0,0,3.79,37.49,185.41,185.41,0,0,0,28.05,66.55,187.08,187.08,0,0,0,81.94,67.5,185.27,185.27,0,0,0,34.93,10.87,187.32,187.32,0,0,0,75,0A186.13,186.13,0,0,0,374.8,374.8a186.51,186.51,0,0,0,39.94-59.18,185.68,185.68,0,0,0-17.18-176.46,187.08,187.08,0,0,0-81.94-67.5A185.1,185.1,0,0,0,243.2,57h0a187.53,187.53,0,0,0-45.3,5.51,183.69,183.69,0,0,0-42.15,16.23,7.12,7.12,0,1,0,6.72,12.56A172.13,172.13,0,0,1,415.15,243.2a172,172,0,0,1-343.9,0,174.34,174.34,0,0,1,.89-17.72c4.84-47.75,28.74-90.16,67.3-119.41a7.13,7.13,0,0,0-4.31-12.81Z"/>
    <path d="M152.36,130.23a7.1,7.1,0,0,0,4.3-1.45,143,143,0,1,1-20,18.32,7.11,7.11,0,0,0,1.83-5.14,7.13,7.13,0,0,0-7.11-6.77,7.14,7.14,0,0,0-5.28,2.33A155.48,155.48,0,0,0,96,186.26,157.82,157.82,0,1,0,243.2,85.5h-.06a156.3,156.3,0,0,0-95.09,31.92,7.1,7.1,0,0,0-2.82,5.64,7.14,7.14,0,0,0,7.13,7.17Z"/>
    <path d="M127.42,185.63a128.06,128.06,0,0,0-10,27.75A130,130,0,0,0,114,243.2a129.1,129.1,0,0,0,37.88,91.31A129.83,129.83,0,0,0,193,362.23,129.2,129.2,0,1,0,243.2,114h0a128.09,128.09,0,0,0-52,10.85,7.12,7.12,0,1,0,5.74,13,115.34,115.34,0,1,1-23.16,13.67l.1-.07s0,0,0,0a7.13,7.13,0,0,0-8.62-11.35,132.07,132.07,0,0,0-21.74,20.77A129.17,129.17,0,0,0,127.42,185.63Z"/>
    <path d="M142.5,243.2A100.7,100.7,0,1,0,243.2,142.5,100.66,100.66,0,0,0,142.5,243.2Zm48.6-69a85.48,85.48,0,0,1,52.1-17.45,86.42,86.42,0,1,1-52.1,17.45Z"/>
    <path d="M243.2,264.57a21.38,21.38,0,0,0,0-42.75,21.06,21.06,0,0,0-12.83,4.27,21.38,21.38,0,0,0,12.83,38.48ZM239,237.45a6.83,6.83,0,0,1,4.22-1.38,7.12,7.12,0,1,1-4.22,1.38Z"/>
    <path d="M456.11,215.55A215,215,0,0,0,243.34,28.48a217.7,217.7,0,0,0-81,15.7A211.9,211.9,0,0,0,115,70.92a7.12,7.12,0,0,0,4.27,12.82,7,7,0,0,0,4.26-1.41,197.25,197.25,0,0,1,93.89-37.91,201.9,201.9,0,0,1,26-1.69h0c100.32,0,185.71,75.09,198.62,174.66a201.81,201.81,0,0,1,1.68,26C443.67,343.68,368.59,429.07,269,442a200,200,0,0,1-168.83-58.45A198.5,198.5,0,0,1,44.42,269a205,205,0,0,1-1.72-26.36c0-53.74,21.3-104.3,60-142.39a7.12,7.12,0,1,0-10-10.14,218.34,218.34,0,0,0-27.55,33A214.89,214.89,0,0,0,45,160.28a212.64,212.64,0,0,0-16.52,82.37,218.74,218.74,0,0,0,1.84,28.19A213.57,213.57,0,0,0,90,393.53a216.21,216.21,0,0,0,69.2,47.21A214.8,214.8,0,0,0,457.91,243.35,217.59,217.59,0,0,0,456.11,215.55Z"/>
  </g>
</svg>
